<svg width="40" height="40" viewBox="0 0 40 40" fill="none" xmlns="http://www.w3.org/2000/svg">
  <circle cx="20" cy="20" r="18" fill="#10a37f"/>
  <path d="M20 8c6.627 0 12 5.373 12 12s-5.373 12-12 12S8 26.627 8 20 13.373 8 20 8zm0 2c-5.523 0-10 4.477-10 10s4.477 10 10 10 10-4.477 10-10-4.477-10-10-10z" fill="white"/>
  <path d="M20 12c4.418 0 8 3.582 8 8s-3.582 8-8 8-8-3.582-8-8 3.582-8 8-8z" fill="#10a37f"/>
  <text x="20" y="25" text-anchor="middle" fill="white" font-family="Arial, sans-serif" font-size="8" font-weight="bold">AI</text>
</svg>
