<svg xmlns="http://www.w3.org/2000/svg" viewBox="0 0 990 540" width="990" height="540" font-family="ui-monospace, SFMono-Regular, Menlo, Consolas, 'Liberation Mono', monospace" font-size="15" xml:space="preserve">
<rect width="990" height="540" fill="#000000"/>
<g shape-rendering="crispEdges">
<rect x="0" y="0" width="990" height="18" fill="#1a1a2e"/>
<rect x="0" y="18" width="990" height="18" fill="#16213e"/>
<rect x="0" y="36" width="990" height="18" fill="#16213e"/>
<rect x="0" y="54" width="990" height="18" fill="#1a1a2e"/>
<rect x="0" y="72" width="990" height="18" fill="#0f3460"/>
<rect x="0" y="90" width="990" height="18" fill="#16213e"/>
<rect x="0" y="108" width="990" height="18" fill="#16213e"/>
<rect x="0" y="126" width="990" height="18" fill="#16213e"/>
<rect x="0" y="144" width="990" height="18" fill="#16213e"/>
<rect x="0" y="162" width="162" height="18" fill="#16213e"/>
<rect x="162" y="162" width="666" height="18" fill="#0c1222"/>
<rect x="828" y="162" width="162" height="18" fill="#16213e"/>
<rect x="0" y="180" width="162" height="18" fill="#16213e"/>
<rect x="162" y="180" width="666" height="18" fill="#0c1222"/>
<rect x="828" y="180" width="162" height="18" fill="#16213e"/>
<rect x="0" y="198" width="162" height="18" fill="#16213e"/>
<rect x="162" y="198" width="666" height="18" fill="#0c1222"/>
<rect x="828" y="198" width="162" height="18" fill="#16213e"/>
<rect x="0" y="216" width="162" height="18" fill="#16213e"/>
<rect x="162" y="216" width="666" height="18" fill="#0c1222"/>
<rect x="828" y="216" width="162" height="18" fill="#16213e"/>
<rect x="0" y="234" width="162" height="18" fill="#16213e"/>
<rect x="162" y="234" width="666" height="18" fill="#0c1222"/>
<rect x="828" y="234" width="162" height="18" fill="#16213e"/>
<rect x="0" y="252" width="162" height="18" fill="#16213e"/>
<rect x="162" y="252" width="666" height="18" fill="#0c1222"/>
<rect x="828" y="252" width="162" height="18" fill="#16213e"/>
<rect x="0" y="270" width="162" height="18" fill="#16213e"/>
<rect x="162" y="270" width="666" height="18" fill="#0c1222"/>
<rect x="828" y="270" width="162" height="18" fill="#16213e"/>
<rect x="0" y="288" width="162" height="18" fill="#16213e"/>
<rect x="162" y="288" width="666" height="18" fill="#0c1222"/>
<rect x="828" y="288" width="162" height="18" fill="#16213e"/>
<rect x="0" y="306" width="162" height="18" fill="#58273d"/>
<rect x="162" y="306" width="666" height="18" fill="#301521"/>
<rect x="828" y="306" width="162" height="18" fill="#58273d"/>
<rect x="0" y="324" width="162" height="18" fill="#16213e"/>
<rect x="162" y="324" width="18" height="18" fill="#0c1222"/>
<rect x="180" y="324" width="54" height="18" fill="#0f3460"/>
<rect x="234" y="324" width="18" height="18" fill="#0c1222"/>
<rect x="252" y="324" width="72" height="18" fill="#0f3460"/>
<rect x="324" y="324" width="504" height="18" fill="#0c1222"/>
<rect x="828" y="324" width="162" height="18" fill="#16213e"/>
<rect x="0" y="342" width="162" height="18" fill="#16213e"/>
<rect x="162" y="342" width="666" height="18" fill="#0c1222"/>
<rect x="828" y="342" width="162" height="18" fill="#16213e"/>
<rect x="0" y="360" width="162" height="18" fill="#16213e"/>
<rect x="162" y="360" width="666" height="18" fill="#0c1222"/>
<rect x="828" y="360" width="162" height="18" fill="#16213e"/>
<rect x="0" y="378" width="990" height="18" fill="#16213e"/>
<rect x="0" y="396" width="990" height="18" fill="#16213e"/>
<rect x="0" y="414" width="990" height="18" fill="#16213e"/>
<rect x="0" y="432" width="990" height="18" fill="#16213e"/>
<rect x="0" y="450" width="990" height="18" fill="#16213e"/>
<rect x="0" y="468" width="990" height="18" fill="#16213e"/>
<rect x="0" y="486" width="990" height="18" fill="#1a1a2e"/>
<rect x="0" y="504" width="990" height="18" fill="#1a1a2e"/>
<rect x="0" y="522" width="963" height="18" fill="#1a1a2e"/>
<rect x="972" y="522" width="18" height="18" fill="#1a1a2e"/>
</g>
<text x="0" y="14" textLength="198" lengthAdjust="spacingAndGlyphs" fill="#e94560" font-weight="700"> AbstractCore Console </text>
<text x="198" y="14" textLength="18" lengthAdjust="spacingAndGlyphs" fill="#27ae60">● </text>
<text x="216" y="14" textLength="63" lengthAdjust="spacingAndGlyphs" fill="#eeeeee">loaded </text>
<text x="279" y="14" textLength="414" lengthAdjust="spacingAndGlyphs" fill="#aaaaaa">· browse · /tmp/console-test/abstractcore.json</text>
<text x="0" y="32" textLength="441" lengthAdjust="spacingAndGlyphs" fill="#aaaaaa"> 1 Overview   2 Model   3 Providers   4 Routes   </text>
<text x="441" y="32" textLength="63" lengthAdjust="spacingAndGlyphs" fill="#eeeeee" font-weight="700">5 Media</text>
<text x="504" y="32" textLength="486" lengthAdjust="spacingAndGlyphs" fill="#aaaaaa">   6 Embeddings   7 Server   8 Review                 </text>
<text x="432" y="50" textLength="81" lengthAdjust="spacingAndGlyphs" fill="#e94560">▔▔▔▔▔▔▔▔▔</text>
<text x="0" y="68" textLength="207" lengthAdjust="spacingAndGlyphs" fill="#f39c12" font-weight="700"> ⚠ video unknown keys: </text>
<text x="207" y="68" textLength="126" lengthAdjust="spacingAndGlyphs" fill="#eeeeee">brand_new_knob</text>
<text x="333" y="68" textLength="306" lengthAdjust="spacingAndGlyphs" fill="#aaaaaa">  — a Python-side save DROPS these</text>
<text x="0" y="86" textLength="990" lengthAdjust="spacingAndGlyphs" fill="#aaaaaa" font-weight="700">section         field                  value                                    state           note          </text>
<text x="0" y="104" textLength="990" lengthAdjust="spacingAndGlyphs" fill="#eeeeee">vision          strategy               disabled                                 · default                     </text>
<text x="0" y="122" textLength="990" lengthAdjust="spacingAndGlyphs" fill="#eeeeee">vision          caption_provider       —                                        · default                     </text>
<text x="0" y="140" textLength="990" lengthAdjust="spacingAndGlyphs" fill="#eeeeee">vision          caption_model          —                                        · default                     </text>
<text x="0" y="158" textLength="990" lengthAdjust="spacingAndGlyphs" fill="#eeeeee">vision          fallback_chain         []                                       · default       CLI can only …</text>
<text x="0" y="176" textLength="990" lengthAdjust="spacingAndGlyphs" fill="#eeeeee">vision          lo                                                                                            </text>
<text x="0" y="194" textLength="171" lengthAdjust="spacingAndGlyphs" fill="#eeeeee">audio           st </text>
<text x="171" y="194" textLength="9" lengthAdjust="spacingAndGlyphs" fill="#3c3c4d">┌</text>
<text x="180" y="194" textLength="207" lengthAdjust="spacingAndGlyphs" fill="#aaaaaa"> Edit video.max_frames </text>
<text x="387" y="194" textLength="432" lengthAdjust="spacingAndGlyphs" fill="#3c3c4d">───────────────────────────────────────────────┐</text>
<text x="819" y="194" textLength="171" lengthAdjust="spacingAndGlyphs" fill="#eeeeee">     not explicit …</text>
<text x="0" y="212" textLength="171" lengthAdjust="spacingAndGlyphs" fill="#eeeeee">audio           st </text>
<text x="171" y="212" textLength="9" lengthAdjust="spacingAndGlyphs" fill="#3c3c4d">│</text>
<text x="810" y="212" textLength="9" lengthAdjust="spacingAndGlyphs" fill="#3c3c4d">│</text>
<text x="0" y="230" textLength="171" lengthAdjust="spacingAndGlyphs" fill="#eeeeee">audio           st </text>
<text x="171" y="230" textLength="9" lengthAdjust="spacingAndGlyphs" fill="#3c3c4d">│</text>
<text x="180" y="230" textLength="108" lengthAdjust="spacingAndGlyphs" fill="#666666"> integer ≥ 1</text>
<text x="810" y="230" textLength="9" lengthAdjust="spacingAndGlyphs" fill="#3c3c4d">│</text>
<text x="0" y="248" textLength="171" lengthAdjust="spacingAndGlyphs" fill="#eeeeee">audio           ca </text>
<text x="171" y="248" textLength="9" lengthAdjust="spacingAndGlyphs" fill="#3c3c4d">│</text>
<text x="810" y="248" textLength="9" lengthAdjust="spacingAndGlyphs" fill="#3c3c4d">│</text>
<text x="819" y="248" textLength="171" lengthAdjust="spacingAndGlyphs" fill="#eeeeee">     reserved      </text>
<text x="0" y="266" textLength="171" lengthAdjust="spacingAndGlyphs" fill="#eeeeee">audio           ca </text>
<text x="171" y="266" textLength="9" lengthAdjust="spacingAndGlyphs" fill="#3c3c4d">│</text>
<text x="180" y="266" textLength="126" lengthAdjust="spacingAndGlyphs" fill="#666666"> applies now: </text>
<text x="306" y="266" textLength="45" lengthAdjust="spacingAndGlyphs" fill="#aaaaaa">three</text>
<text x="351" y="266" textLength="90" lengthAdjust="spacingAndGlyphs" fill="#666666">  (BROKEN)</text>
<text x="810" y="266" textLength="9" lengthAdjust="spacingAndGlyphs" fill="#3c3c4d">│</text>
<text x="819" y="266" textLength="171" lengthAdjust="spacingAndGlyphs" fill="#eeeeee">     reserved      </text>
<text x="0" y="284" textLength="171" lengthAdjust="spacingAndGlyphs" fill="#eeeeee">audio           fa </text>
<text x="171" y="284" textLength="9" lengthAdjust="spacingAndGlyphs" fill="#3c3c4d">│</text>
<text x="810" y="284" textLength="9" lengthAdjust="spacingAndGlyphs" fill="#3c3c4d">│</text>
<text x="819" y="284" textLength="171" lengthAdjust="spacingAndGlyphs" fill="#eeeeee">     reserved      </text>
<text x="0" y="302" textLength="171" lengthAdjust="spacingAndGlyphs" fill="#eeeeee">video           st </text>
<text x="171" y="302" textLength="9" lengthAdjust="spacingAndGlyphs" fill="#3c3c4d">│</text>
<text x="810" y="302" textLength="9" lengthAdjust="spacingAndGlyphs" fill="#3c3c4d">│</text>
<text x="0" y="320" textLength="171" lengthAdjust="spacingAndGlyphs" fill="#eeeeee">video           ma </text>
<text x="171" y="320" textLength="9" lengthAdjust="spacingAndGlyphs" fill="#3c3c4d">│</text>
<text x="810" y="320" textLength="9" lengthAdjust="spacingAndGlyphs" fill="#3c3c4d">│</text>
<text x="819" y="320" textLength="171" lengthAdjust="spacingAndGlyphs" fill="#eeeeee"> n …               </text>
<text x="0" y="338" textLength="171" lengthAdjust="spacingAndGlyphs" fill="#eeeeee">video           ma </text>
<text x="171" y="338" textLength="9" lengthAdjust="spacingAndGlyphs" fill="#3c3c4d">│</text>
<text x="180" y="338" textLength="630" lengthAdjust="spacingAndGlyphs" fill="#eeeeee"> Save    Cancel                                                       </text>
<text x="810" y="338" textLength="9" lengthAdjust="spacingAndGlyphs" fill="#3c3c4d">│</text>
<text x="0" y="356" textLength="171" lengthAdjust="spacingAndGlyphs" fill="#eeeeee">video           fr </text>
<text x="171" y="356" textLength="648" lengthAdjust="spacingAndGlyphs" fill="#3c3c4d">└──────────────────────────────────────────────────────────────────────┘</text>
<text x="0" y="374" textLength="990" lengthAdjust="spacingAndGlyphs" fill="#eeeeee">video           sa                                                                                            </text>
<text x="0" y="392" textLength="990" lengthAdjust="spacingAndGlyphs" fill="#eeeeee">video           max_frame_side         1024                                     · default                     </text>
<text x="0" y="410" textLength="990" lengthAdjust="spacingAndGlyphs" fill="#eeeeee">video           max_video_size_bytes   —                                        · default                     </text>
<text x="0" y="500" textLength="162" lengthAdjust="spacingAndGlyphs" fill="#e94560" font-weight="700"> video.max_frames </text>
<text x="162" y="500" textLength="63" lengthAdjust="spacingAndGlyphs" fill="#eeeeee">three  </text>
<text x="225" y="500" textLength="54" lengthAdjust="spacingAndGlyphs" fill="#e74c3c" font-weight="700">broken</text>
<text x="279" y="500" textLength="369" lengthAdjust="spacingAndGlyphs" fill="#aaaaaa"> — expected an integer, file has a string</text>
<text x="0" y="536" textLength="27" lengthAdjust="spacingAndGlyphs" fill="#e94560" font-weight="700">1-8</text>
<text x="27" y="536" textLength="72" lengthAdjust="spacingAndGlyphs" fill="#aaaaaa"> screens</text>
<text x="99" y="536" textLength="45" lengthAdjust="spacingAndGlyphs" fill="#666666">  ·  </text>
<text x="144" y="536" textLength="9" lengthAdjust="spacingAndGlyphs" fill="#e94560" font-weight="700">q</text>
<text x="153" y="536" textLength="45" lengthAdjust="spacingAndGlyphs" fill="#aaaaaa"> quit</text>
<text x="198" y="536" textLength="45" lengthAdjust="spacingAndGlyphs" fill="#666666">  ·  </text>
<text x="243" y="536" textLength="9" lengthAdjust="spacingAndGlyphs" fill="#e94560" font-weight="700">w</text>
<text x="252" y="536" textLength="63" lengthAdjust="spacingAndGlyphs" fill="#aaaaaa"> wizard</text>
<text x="315" y="536" textLength="45" lengthAdjust="spacingAndGlyphs" fill="#666666">  ·  </text>
<text x="360" y="536" textLength="9" lengthAdjust="spacingAndGlyphs" fill="#e94560" font-weight="700">r</text>
<text x="369" y="536" textLength="63" lengthAdjust="spacingAndGlyphs" fill="#aaaaaa"> reload</text>
<text x="432" y="536" textLength="45" lengthAdjust="spacingAndGlyphs" fill="#666666">  ·  </text>
<text x="477" y="536" textLength="63" lengthAdjust="spacingAndGlyphs" fill="#e94560" font-weight="700">Enter/e</text>
<text x="540" y="536" textLength="99" lengthAdjust="spacingAndGlyphs" fill="#aaaaaa"> edit field</text>
<text x="639" y="536" textLength="45" lengthAdjust="spacingAndGlyphs" fill="#666666">  ·  </text>
<text x="684" y="536" textLength="9" lengthAdjust="spacingAndGlyphs" fill="#e94560" font-weight="700">x</text>
<text x="693" y="536" textLength="108" lengthAdjust="spacingAndGlyphs" fill="#aaaaaa"> clear field</text>
<text x="801" y="536" textLength="45" lengthAdjust="spacingAndGlyphs" fill="#666666">  ·  </text>
<text x="846" y="536" textLength="9" lengthAdjust="spacingAndGlyphs" fill="#e94560" font-weight="700">g</text>
<text x="855" y="536" textLength="108" lengthAdjust="spacingAndGlyphs" fill="#aaaaaa"> test defau…</text>
<text x="963" y="536" textLength="27" lengthAdjust="spacingAndGlyphs" fill="#eeeeee">☾  </text>
</svg>
